<?xml version="1.0" encoding="utf-8"?>
<!-- Generator: Adobe Illustrator 23.0.5, SVG Export Plug-In . SVG Version: 6.00 Build 0)  -->
<svg version="1.1" xmlns="http://www.w3.org/2000/svg" xmlns:xlink="http://www.w3.org/1999/xlink" x="0px" y="0px"
	 viewBox="0 0 122.9 109.6" style="enable-background:new 0 0 122.9 109.6;" xml:space="preserve">
<style type="text/css">
	.st0{display:none;}
	.st1{fill:#891111;}
	.st2{display:inline;fill:#891111;}
	.st3{fill:#020202;}
	.st4{display:none;fill:#210202;}
	.st5{fill:none;stroke:#000000;stroke-width:2;stroke-miterlimit:10;}
</style>
<g id="Layer_1" class="st0">
	<title>weight-loss-new</title>
	<path class="st1" d="M8.3,109.6c-4.4-32.3,2.4-48.7,8.4-63.1c2.1-5.1,5.9-14.6,7.2-24.3C25,14.1,24.1,5.9,23.7,0h3.1
		c0.5,6.4,1.2,15,0,23.4c-1.4,9.7-5.1,19.1-7.3,24.3l-0.7,1.7c30.8,9.5,59.4,8.9,86.3-0.1l-0.6-1.4c-2.1-5.1-7.5-14.1-8.9-23.5
		C94.4,15.7,96.4,6.6,97.2,0h3.1c-0.8,6.3-2.8,15.1-1.6,23.7c1.3,9.2,6.7,18.1,8.7,23c5.9,14.4,12.7,30.9,8.4,62.9h-3.1
		c3.5-25.4-0.2-40.8-4.8-53.3C92.1,62.9,79.6,73,68.2,85.6c0,0.2,0,0.4,0,0.7c-1.1,5.5-1.8,11.2-2.1,16.8c-0.1,2.1-0.2,4.3-0.3,6.5
		h-3.1c0.1-2.3,0.2-4.5,0.3-6.7c0.3-4.5,0.7-9.1,1.4-13.5h-5.6c0.8,4.4,1.3,8.9,1.6,13.4c0.2,2.2,0.3,4.5,0.3,6.8h-3.1
		c-0.1-2.2-0.2-4.4-0.3-6.6c-0.3-5.6-1.1-11.2-2.3-16.7c0,0,0-0.1,0-0.1c-11.4-13.3-23.9-23-39.1-29.4C11.4,69,8,84.3,11.4,109.6
		H8.3z"/>
	<path class="st1" d="M62,43.7c1.1,0,2,0.7,2,1.5s-0.9,1.5-2,1.5s-2-0.7-2-1.5C60.2,44.2,61.1,43.6,62,43.7z"/>
	<path class="st1" d="M15.6,22.1l-5.8,5.7c-0.5,0.4-1.3,0.3-1.7-0.2c-0.4-0.5-0.4-1.1,0-1.6l3.7-3.6H1.2c-0.7,0-1.2-0.6-1.2-1.2
		c0-0.7,0.6-1.2,1.2-1.2h10.5L8,16.3c-0.5-0.4-0.6-1.2-0.1-1.7c0.4-0.5,1.2-0.6,1.7-0.1c0,0,0.1,0.1,0.1,0.1l5.8,5.7
		c0.3,0.2,0.4,0.6,0.5,1C16,21.5,15.9,21.9,15.6,22.1L15.6,22.1z"/>
	<path class="st1" d="M107.3,20.2l5.8-5.7c0.5-0.4,1.3-0.4,1.7,0.1c0.4,0.5,0.4,1.2,0,1.6l-3.7,3.6h10.5c0.7,0,1.2,0.6,1.2,1.2
		c0,0.7-0.6,1.2-1.2,1.2h-10.5l3.7,3.6c0.5,0.5,0.4,1.3-0.1,1.8c-0.5,0.4-1.2,0.4-1.6,0l-5.8-5.7c-0.3-0.2-0.4-0.6-0.4-1
		C106.8,20.8,107,20.4,107.3,20.2z"/>
	<rect x="0" class="st2" width="109.7" height="109.7"/>
</g>
<g id="Layer_2">
	
	
	<path class="st3" d="M55.1,82C42,80.9,31.6,69.9,31.6,56.4c0-14.2,11.5-25.7,25.7-25.7s25.7,11.5,25.7,25.7
		c0,6.4-2.4,12.3-6.3,16.8c0.3,0.8,0.9,1.3,1.8,1.3c4.2-4.9,6.7-11.2,6.7-18.2c0-15.4-12.5-27.9-27.9-27.9
		c-15.4,0-27.9,12.5-27.9,27.9C29.3,70.4,39.6,82,53,84c0.6-0.1,2.1-0.4,2.1-0.4S55.2,83,55.1,82z M61.2,84c5.4-0.8,10.2-3,14.2-6.4
		c0-1-0.5-1.6-1.4-1.7c-4,3.4-9.1,5.6-14.7,6c0,0-0.2,0-0.2,0s0,0.7,0,1L61.2,84z"/>
	<path class="st3" d="M57.2,36.5c-11,0-19.9,8.9-19.9,19.9c0,11,8.9,19.9,19.9,19.9c11,0,19.9-8.9,19.9-19.9
		C77.2,45.4,68.2,36.5,57.2,36.5z M57.3,74c-9.8,0-17.7-7.9-17.7-17.7s7.9-17.7,17.7-17.7s17.7,7.9,17.7,17.7S67,74,57.3,74z"/>
	<path class="st4" d="M60.1,99.3V81.9c-2.1,0.2-4.1,0.2-6.1,0v17.4h-9.5v6.1h9.5v6.3h6.1v-6.3h9.5v-6.1H60.1z M68.5,104.3h-9
		l-0.1,6.4h-4.6v-6.3l-9.2,0v-4.4l9.2,0V82c1.5,0.1,3.1,0.1,4.6,0l0,17.9l9,0L68.5,104.3z"/>
	<polygon class="st5" points="44.6,14.2 54.1,14.2 54.1,26.9 60.1,26.9 60.1,14.2 69.6,14.2 69.6,8.2 60.1,8.2 60.1,1.8 54.1,1.8 
		54.1,8.2 44.6,8.2 	"/>
	<polyline class="st5" points="54.1,82.9 54.1,96.1 44.6,96.1 44.6,102.2 54.1,102.2 54.1,108.5 60.1,108.5 60.1,102.2 69.6,102.2 
		69.6,96.1 60.1,96.1 60.1,82.9 	"/>
	<polygon class="st5" points="99.6,44.2 99.6,53.7 87,53.7 87,59.8 99.6,59.8 99.6,69.3 105.7,69.3 105.7,59.8 112,59.8 112,53.7 
		105.7,53.7 105.7,44.2 	"/>
	<polygon class="st5" points="14.6,69.3 14.6,59.8 27.2,59.8 27.2,53.7 14.6,53.7 14.6,44.2 8.5,44.2 8.5,53.7 2.2,53.7 2.2,59.8 
		8.5,59.8 8.5,69.3 	"/>
</g>
</svg>
