<svg id="Layer_1" data-name="Layer 1" xmlns="http://www.w3.org/2000/svg" viewBox="0 0 122.88 103.06">
<defs>
<style>.cls-1{fill-rule:evenodd;}
</style>
</defs>
<title>fitness</title>
<path class="cls-1" id="check" d="M72.81,19h0a3.46,3.46,0,0,0-2.42.83.43.43,0,0,0-.12.11L57.86,31.38l-5.2-5a3.41,3.41,0,0,0-4.72,4.93l7.55,7.24a3.42,3.42,0,0,0,4.62.1l.08-.09L74.9,24.88A3.4,3.4,0,0,0,76,22.6v0A3.42,3.42,0,0,0,72.81,19Z" transform="translate(0 0)"/>
<path class="cls-1" id="heart" d="M76.91.12C69.38,1,66,5.39,61.07,10.48,55.2,4.78,51.42.3,42.41.18,32.33.05,23.57,7.17,24,18.27c.56,15.85,17.77,28.65,28.33,38.82l8.77,8.44L71.69,55c3.89-3.86,9.45-9,14.47-14.15,4.58-4.74,8.72-9.56,10.75-13.62C104.05,13,91-1.5,76.91.12ZM93.74,26.66c-2.53,6.79-33.23,34.63-32.65,34.62-5-5.1-25.15-21.26-31-32.56C23.74,17.87,26.87,3.83,42.26,3.13c8.48.19,11.4,4.64,18.85,11.57C63.64,12.83,69.57,2.87,78.55,3,92.55,2.7,100,17.77,93.74,26.66Z" transform="translate(0 0)"/>
<path class="cls-1" d="M121.68,62.75a4,4,0,0,0-2.88-1.2h-6.12V57.51a4.06,4.06,0,0,0-1.19-2.88,4.1,4.1,0,0,0-2.88-1.19H103a2.13,2.13,0,0,0-.44,0V49.41a4.08,4.08,0,0,0-4.07-4.07H92.62a4.07,4.07,0,0,0-3.89,4.07l0,49.53a4.11,4.11,0,0,0,1.2,2.88,4.07,4.07,0,0,0,2.88,1.2h5.83A4.07,4.07,0,0,0,102.55,99V95.53a3.25,3.25,0,0,0,.44,0h5.65a4.11,4.11,0,0,0,2.88-1.2,4.07,4.07,0,0,0,1.2-2.88V86.8l.44,0h5.65a4.06,4.06,0,0,0,2.87-1.2,4,4,0,0,0,1.2-2.86V65.63A4,4,0,0,0,121.68,62.75ZM98.8,99.28a.46.46,0,0,1-.26.13h-5.7A.44.44,0,0,1,92.4,99V49.42a.44.44,0,0,1,.13-.31.5.5,0,0,1,.26-.13h5.7a.39.39,0,0,1,.31.14.44.44,0,0,1,.13.31q0,24.78,0,49.55A.44.44,0,0,1,98.8,99.28Zm10.28-7.79a.44.44,0,0,1-.13.31.46.46,0,0,1-.31.13H103a.44.44,0,0,1-.3-.14.44.44,0,0,1-.13-.31v-34h0a.42.42,0,0,1,.13-.3.46.46,0,0,1,.31-.13h5.64a.48.48,0,0,1,.32.13.44.44,0,0,1,.13.31Q109.07,74.5,109.08,91.49Zm10-8.43a.41.41,0,0,1-.31.13h-5.65a.46.46,0,0,1-.31-.13.44.44,0,0,1-.13-.25V65.57a.47.47,0,0,1,.13-.25.41.41,0,0,1,.31-.13h5.65a.42.42,0,0,1,.3.13.44.44,0,0,1,.13.31V82.75A.44.44,0,0,1,119.11,83.06Z" transform="translate(0 0)"/>
<rect x="42.14" y="70.21" width="39.18" height="8.78"/>
<path class="cls-1" d="M30.06,45.35H24.41a4.08,4.08,0,0,0-4.07,4.07v4l-.44,0H14.25a4,4,0,0,0-2.88,1.19,4.08,4.08,0,0,0-1.19,2.7c0,.06,0,.12,0,.18v4l-.44,0H4.08A4.08,4.08,0,0,0,0,65.63V82.78a4.1,4.1,0,0,0,4.08,4.08H9.75a2.13,2.13,0,0,0,.44,0v4.68a4,4,0,0,0,1.19,2.87,4.08,4.08,0,0,0,2.69,1.19H19.9a3.15,3.15,0,0,0,.44,0V99a4.07,4.07,0,0,0,3.89,4.06h5.83A4.1,4.1,0,0,0,34.14,99V49.43a4.1,4.1,0,0,0-4.08-4.08ZM10,83.07a.44.44,0,0,1-.31.13H4.07a.44.44,0,0,1-.44-.44V65.63a.44.44,0,0,1,.44-.44H9.72a.39.39,0,0,1,.3.13.42.42,0,0,1,.13.3h0V82.76A.44.44,0,0,1,10,83.07ZM20.31,57.52v34a.4.4,0,0,1-.14.25.41.41,0,0,1-.3.14h-5.7a.43.43,0,0,1-.26-.13.42.42,0,0,1-.13-.31v-34a.5.5,0,0,1,.13-.26.45.45,0,0,1,.31-.14h5.65a.44.44,0,0,1,.31.13.47.47,0,0,1,.13.25ZM30.36,99.25a.44.44,0,0,1-.31.13h-5.7a.43.43,0,0,1-.26-.13A.41.41,0,0,1,24,99q0-24.76,0-49.53a.44.44,0,0,1,.13-.31.41.41,0,0,1,.3-.14H30a.44.44,0,0,1,.44.44V98.94A.44.44,0,0,1,30.36,99.25Z" transform="translate(0 0)"/>
</svg>