<svg xmlns="http://www.w3.org/2000/svg" xmlns:xlink="http://www.w3.org/1999/xlink" id="Layer_1" x="0px" y="0px" viewBox="0 0 197 198" style="enable-background:new 0 0 197 198;" xml:space="preserve" fill="#ffffff">
<g>
	<path d="M86.1,187.5c0.5,3.4,1.8,4.8,4,5c1.8,0.2,3.1-0.9,3.3-2.7c0.4-4.9-8.3-4.5-7.7-10.7c0.3-3.3,2.5-6,6.7-5.6   c1.8,0.2,2.7,0.7,3.9,0.8c0.4,0,0.7,0,1.1,0c-0.1,0.5-0.1,0.9-0.2,1.3c-0.1,0.9-0.1,2.1-0.1,2.6c-0.1,0.6-0.1,1.4-0.4,1.9l-0.4,0   c-0.1-2.7-1-5.5-4-5.8c-2.2-0.2-3.5,1.1-3.7,3.1c-0.4,4.9,8.1,4.8,7.6,10.9c-0.3,3.1-2.9,5.4-6.2,5.1c-1.6-0.1-2.2-0.6-3.2-0.7   c-0.5,0-1.2,0-1.7,0.2c0.1-0.8,0.2-1.9,0.3-2.9c0-0.4,0.1-1.3,0.2-2.5L86.1,187.5z"/>
	<path d="M77.3,173.4c0.8-1.5,2.1-2.1,3.5-1.8c2.2,0.5,3.4,1.9,2.8,4.4l-1.6,7.2l1.3,0.3l-0.1,0.4c-2.5,0.8-4.2,2.6-5.3,4.6   l-0.6-0.3c0.3-0.8,0.8-2.5,1.1-4l-0.8-0.2c-0.9-0.2-1.7-0.4-2.4,0.1l-0.2-0.4c0.5-0.5,1-0.9,1.6-1.7l2.1,0.5l1.5-6.6   c0.4-2,0.2-2.8-1-3.1c-0.8-0.2-1.3,0.3-1.8,0.9L77.3,173.4z"/>
	<path d="M66.2,168.2c0.7-0.5,1.7-0.9,2.8-0.4c0.8,0.3,1.4,0.9,1.4,1.9c1.4-0.4,2.6-0.4,3.9,0c1.9,0.7,3.3,2.3,2.6,4.2   c-0.8,2.1-3.3,2.5-5.7,1.6c-0.8-0.3-1.6-0.8-2.2-1.4l-1.1,3c-0.9,2.4-0.4,3.2,0.6,3.6c1.3,0.5,2.1-0.4,2.9-2.6l3,1.1   c-1.5,2.9-4.2,2.8-6.3,2.1c-2.8-1-4.1-3-3.1-6l1.9-5c0.4-1.2,0.3-1.5-0.1-1.7c-0.2-0.1-0.3-0.1-0.5,0L66.2,168.2z M69.2,173.5   c0.4,0.4,1,0.8,1.6,1c1.2,0.4,2.1,0.2,2.7-1.3c0.6-1.6,0-2.5-1-2.8c-0.6-0.2-1.4-0.2-2.1,0.1c0,0.2-0.1,0.4-0.2,0.6L69.2,173.5z"/>
	<path d="M61.4,164.2c0.5,0.3,1.6,0.9,2.4,1.4c0.9,0.5,2,1,2.5,1.3l-0.2,0.4c-0.8-0.2-1.1-0.3-2.2,1.6l-3.1,5.6   c-0.8,1.4-1,1.9-0.4,2.5l-0.2,0.4c-1.3-0.7-2.8-1.2-4-1.3l1.1-1.9c-2.1,0.6-3.1,0.8-4.1,0.2c-1.1-0.6-1.7-1.9-0.3-4.4l2.8,1.6   c-0.6,1-0.3,1.6,0.3,1.9c0.5,0.3,1,0.3,1.8,0l3.4-6.1c1-1.9,0.8-2.2,0.2-2.7L61.4,164.2z"/>
	<path d="M49.4,159c1.3-1,2.7-1.1,3.9-0.2c1.8,1.3,2.4,3.1,0.9,5.2l-4.3,6l1.1,0.8l-0.2,0.3c-2.6-0.3-4.9,0.7-6.7,2.2l-0.5-0.5   c0.6-0.6,1.7-2,2.6-3.3l-0.6-0.5c-0.8-0.5-1.4-1-2.2-0.8l0-0.4c0.6-0.2,1.3-0.5,2.2-0.9l1.7,1.2l4-5.5c1.2-1.6,1.3-2.5,0.3-3.2   c-0.6-0.5-1.3-0.3-2,0.1L49.4,159z"/>
	<path d="M36.8,142.6c0.4,0.5,1.2,1.4,1.8,2.1s1.5,1.7,1.9,2.1l-0.3,0.3c-0.6-0.5-1-0.7-2.6,0.7l-4.3,3.7c-1.7,1.5-1.9,2.7-0.8,3.9   c0.6,0.7,1.5,1,2.5,1.1l5.8-5.1c1.6-1.4,1.5-1.8,1.1-2.5l0.3-0.3c0.4,0.5,1.2,1.4,1.8,2.1s1.5,1.7,1.9,2.1l-0.3,0.3   c-0.6-0.5-1-0.7-2.6,0.7l-4.8,4.2c-1.2,1.1-1.6,1.5-1.3,2.2l-0.3,0.3c-1-1.1-2.2-2.1-3.3-2.6l1.1-1c-1.9-0.3-3-1.1-3.8-2   c-1.2-1.4-2.4-3.5,0.5-6l4.3-3.7c1.6-1.4,1.5-1.8,1.1-2.5L36.8,142.6z"/>
	<path d="M33.4,136.6c1.7,2.9,1.3,7.1-2.1,9.1c-3.5,2.1-7.3,0.5-9.1-2.4s-1.3-7.1,2.2-9.1C27.8,132.1,31.7,133.7,33.4,136.6z    M26.3,137.3c-3.3,2-4.7,3.5-3.5,5.6c1.3,2.1,3.3,1.6,6.6-0.4c3.1-1.9,4.6-3.4,3.3-5.5C31.5,134.9,29.5,135.4,26.3,137.3z"/>
	<path d="M26.5,120.7l-6.5,5.2l8.3,0l0.2,0.7l-8.1,6.5c-1.9,1.5-2.2,1.8-2.2,2.7l-0.4,0.1c-0.1-0.4-0.3-1.1-0.7-2   c-0.3-1-1.1-3-1.2-3.3l0.4-0.1c0.4,0.6,0.8,0.6,1.3,0.5c0.5-0.2,1-0.6,1.7-1.1l3.9-3l-8.7,0.1l-0.2-0.6l6.9-5.4l-4.7,0.1   c-0.8,0-1.6,0.1-2,0.3c-0.6,0.2-0.9,0.6-0.8,1.2l-0.4,0.1c-0.1-0.4-0.3-0.9-0.7-2c-0.3-0.8-0.5-1.4-0.6-1.7l0.4-0.1   c0.3,0.5,1.2,1.1,5,1.1l8.9,0L26.5,120.7z"/>
	<path d="M14.8,107.8c0.1,0.6-0.4,1.3-1.1,1.3c-0.7,0.1-1.4-0.4-1.4-1c-0.1-0.7,0.4-1.4,1.2-1.4C14.1,106.6,14.7,107.1,14.8,107.8z"/>
	<path d="M9.1,85.8c-3.4,0.5-4.8,1.8-5,4C3.9,91.7,5,93,6.8,93.2c4.9,0.4,4.4-8.3,10.7-7.7c3.3,0.3,6,2.5,5.7,6.7   c-0.1,1.8-0.7,2.7-0.8,3.9c0,0.4,0,0.7,0,1.1C22,97.1,21.5,97,21.1,97c-0.9-0.1-2.1-0.1-2.6-0.1c-0.6-0.1-1.4-0.1-1.9-0.4l0-0.4   c2.7-0.1,5.5-1,5.7-4c0.2-2.2-1.2-3.5-3.1-3.7C14.4,88,14.4,96.5,8.3,96c-3.1-0.3-5.4-2.9-5.1-6.2c0.1-1.6,0.6-2.2,0.7-3.2   c0-0.5,0-1.2-0.2-1.7c0.8,0.1,1.9,0.2,2.9,0.3c0.4,0,1.3,0.1,2.5,0.2L9.1,85.8z"/>
	<path d="M23.1,77c1.5,0.8,2.1,2,1.8,3.5c-0.5,2.2-1.9,3.4-4.4,2.9l-7.2-1.6L13,83.1L12.6,83c-0.8-2.5-2.6-4.2-4.6-5.3l0.3-0.6   c0.8,0.3,2.5,0.8,4,1.1l0.2-0.8c0.2-0.9,0.4-1.7-0.1-2.4l0.4-0.2c0.5,0.5,0.9,1,1.7,1.6L14,78.6l6.6,1.5c2,0.4,2.8,0.2,3.1-1   c0.2-0.8-0.3-1.3-0.9-1.8L23.1,77z"/>
	<path d="M28.3,65.9c0.5,0.7,0.9,1.7,0.5,2.8c-0.3,0.8-0.9,1.4-1.9,1.4c0.4,1.4,0.4,2.6,0,3.9c-0.7,1.9-2.3,3.3-4.2,2.6   c-2.1-0.8-2.5-3.3-1.6-5.7c0.3-0.8,0.8-1.7,1.3-2.2l-3-1.1c-2.4-0.9-3.2-0.4-3.6,0.6c-0.5,1.3,0.4,2.1,2.6,2.9l-1.1,3   c-2.9-1.5-2.9-4.2-2.1-6.3c1-2.8,3-4.2,6-3.1l5,1.8c1.2,0.4,1.5,0.3,1.6-0.1c0.1-0.2,0.1-0.3,0-0.5L28.3,65.9z M23,69   c-0.4,0.4-0.8,1-1,1.6c-0.4,1.2-0.2,2.1,1.4,2.7c1.6,0.6,2.5,0,2.8-1c0.2-0.6,0.2-1.4-0.1-2.1c-0.2,0-0.4-0.1-0.6-0.2L23,69z"/>
	<path d="M32.4,61.2c-0.3,0.5-0.9,1.6-1.4,2.4c-0.5,0.9-1,2-1.3,2.5l-0.4-0.2c0.2-0.8,0.3-1.1-1.6-2.2l-5.6-3.1   c-1.4-0.8-1.9-1-2.5-0.4L19.2,60c0.7-1.3,1.2-2.8,1.3-4l1.9,1.1c-0.6-2.1-0.8-3.1-0.2-4.1c0.6-1.1,1.9-1.7,4.4-0.3l-1.6,2.8   c-1-0.6-1.6-0.3-1.9,0.3c-0.3,0.5-0.3,1,0,1.8l6.1,3.4c1.9,1,2.2,0.8,2.7,0.2L32.4,61.2z"/>
	<path d="M37.5,49.1c1,1.3,1.1,2.7,0.2,3.9c-1.3,1.8-3.1,2.4-5.2,0.9l-6-4.3l-0.8,1.1l-0.3-0.2c0.3-2.6-0.7-4.9-2.2-6.7l0.5-0.5   c0.6,0.6,2,1.7,3.3,2.6l0.5-0.7c0.5-0.8,1-1.4,0.8-2.2l0.4,0c0.2,0.6,0.5,1.3,1,2.2l-1.2,1.7l5.5,4c1.6,1.2,2.5,1.3,3.2,0.3   c0.5-0.7,0.3-1.3-0.1-2L37.5,49.1z"/>
	<path d="M53.9,36.5c-0.5,0.4-1.4,1.2-2.1,1.8c-0.7,0.7-1.6,1.5-2.1,1.9l-0.3-0.3c0.5-0.6,0.7-1-0.7-2.6L44.9,33   c-1.5-1.7-2.7-1.9-3.9-0.8c-0.7,0.6-1,1.5-1.1,2.5l5.1,5.8c1.4,1.6,1.8,1.5,2.5,1.1l0.3,0.3c-0.5,0.4-1.4,1.2-2.1,1.8   c-0.7,0.7-1.6,1.5-2.1,1.9l-0.3-0.3c0.5-0.6,0.7-1-0.7-2.6l-4.2-4.8c-1.1-1.2-1.5-1.6-2.2-1.3l-0.3-0.3c1.1-1,2.1-2.2,2.6-3.4   l1,1.1c0.3-1.9,1.1-3,2-3.8c1.4-1.2,3.5-2.4,6,0.5l3.8,4.3c1.4,1.6,1.8,1.5,2.5,1.1L53.9,36.5z"/>
	<path d="M59.8,33.1c-2.9,1.8-7.1,1.3-9.1-2.1c-2.1-3.5-0.5-7.3,2.4-9.1s7.1-1.3,9.1,2.2C64.3,27.5,62.8,31.3,59.8,33.1z M59.1,26   c-2-3.3-3.5-4.7-5.6-3.5c-2.1,1.3-1.6,3.3,0.4,6.6c1.9,3.1,3.4,4.6,5.5,3.3C61.6,31.2,61,29.2,59.1,26z"/>
	<path d="M75.8,26.2l-5.2-6.5l0.1,8.3l-0.7,0.2l-6.5-8.1c-1.5-1.8-1.8-2.2-2.7-2.2l-0.1-0.4c0.4-0.1,1.1-0.3,2-0.7   c1-0.3,3-1.1,3.3-1.2l0.1,0.4c-0.6,0.4-0.6,0.8-0.4,1.3c0.2,0.5,0.6,1,1.1,1.7l3,3.8l-0.1-8.7l0.6-0.2l5.4,6.9l-0.1-4.7   c0-0.8-0.1-1.6-0.3-2c-0.2-0.6-0.6-0.9-1.2-0.8l-0.1-0.4c0.4-0.1,0.9-0.3,2-0.7c0.8-0.3,1.4-0.5,1.7-0.6l0.1,0.4   c-0.5,0.3-1.1,1.2-1.1,5l0,8.9L75.8,26.2z"/>
	<path d="M88.6,14.4c-0.6,0.1-1.3-0.4-1.3-1.1c-0.1-0.7,0.4-1.4,1-1.4c0.7-0.1,1.4,0.4,1.5,1.1C89.8,13.7,89.3,14.3,88.6,14.4z"/>
	<path d="M110.6,8.7c-0.5-3.4-1.8-4.8-4-5c-1.8-0.1-3.1,0.9-3.3,2.7c-0.4,4.9,8.3,4.4,7.8,10.7c-0.3,3.3-2.4,6-6.7,5.7   c-1.8-0.1-2.7-0.7-3.9-0.8c-0.4,0-0.7,0-1.1,0c0.1-0.5,0.1-0.9,0.2-1.3c0.1-0.9,0.1-2.1,0.1-2.6c0.1-0.6,0.1-1.4,0.4-1.9l0.4,0   c0.1,2.7,1,5.5,4,5.7c2.2,0.2,3.5-1.2,3.7-3.1c0.4-4.9-8.2-4.8-7.7-10.9c0.3-3.1,2.9-5.4,6.2-5.1c1.7,0.1,2.2,0.6,3.2,0.7   c0.5,0,1.2,0,1.7-0.2c-0.1,0.8-0.2,1.9-0.3,2.9c0,0.4-0.1,1.3-0.2,2.5L110.6,8.7z"/>
	<path d="M119.4,22.7c-0.8,1.5-2,2.1-3.5,1.8c-2.2-0.5-3.4-1.9-2.9-4.4l1.6-7.2l-1.3-0.3l0.1-0.4c2.5-0.8,4.2-2.6,5.3-4.6l0.6,0.3   c-0.3,0.8-0.7,2.5-1.1,4L119,12c0.9,0.2,1.7,0.4,2.4-0.1l0.2,0.4c-0.5,0.5-1,0.9-1.6,1.7l-2.1-0.5l-1.5,6.7c-0.4,2-0.2,2.8,1,3.1   c0.8,0.2,1.3-0.3,1.8-0.9L119.4,22.7z"/>
	<path d="M130.5,27.9c-0.7,0.5-1.7,0.9-2.8,0.5c-0.8-0.3-1.4-0.9-1.4-1.9c-1.4,0.4-2.6,0.4-3.9,0c-1.9-0.7-3.3-2.3-2.6-4.2   c0.8-2.1,3.3-2.5,5.7-1.6c0.8,0.3,1.7,0.8,2.2,1.3l1.1-3c0.9-2.4,0.4-3.2-0.6-3.6c-1.3-0.5-2.1,0.4-2.9,2.6l-3-1.1   c1.5-2.9,4.2-2.9,6.3-2.1c2.8,1,4.2,3,3.1,6l-1.8,5c-0.4,1.2-0.3,1.5,0.1,1.6c0.2,0.1,0.3,0.1,0.5,0L130.5,27.9z M127.5,22.6   c-0.4-0.4-1-0.8-1.6-1c-1.2-0.4-2.1-0.1-2.7,1.4c-0.6,1.6,0,2.5,1,2.8c0.6,0.2,1.4,0.2,2.1-0.1c0-0.2,0.1-0.4,0.2-0.6L127.5,22.6z"/>
	<path d="M135.3,31.9c-0.5-0.3-1.6-0.9-2.4-1.4s-2-1-2.5-1.3l0.2-0.4c0.8,0.2,1.1,0.3,2.2-1.6l3.1-5.6c0.8-1.4,1-1.9,0.4-2.5   l0.2-0.4c1.3,0.7,2.8,1.2,4,1.3l-1,1.9c2.1-0.6,3.1-0.8,4.1-0.2c1.1,0.6,1.7,1.9,0.3,4.4l-2.8-1.5c0.6-1,0.3-1.6-0.3-1.9   c-0.5-0.3-1-0.3-1.8,0l-3.3,6.1c-1,1.9-0.8,2.2-0.2,2.7L135.3,31.9z"/>
	<path d="M147.4,37c-1.3,1-2.7,1.1-3.9,0.2c-1.8-1.3-2.4-3.1-0.9-5.2l4.3-6l-1.1-0.8l0.2-0.3c2.6,0.3,4.9-0.7,6.7-2.2l0.5,0.5   c-0.6,0.6-1.7,2-2.6,3.3l0.7,0.5c0.8,0.5,1.4,1,2.2,0.8l0,0.4c-0.6,0.2-1.3,0.5-2.2,1l-1.7-1.2l-4,5.5c-1.2,1.6-1.3,2.5-0.3,3.2   c0.7,0.5,1.3,0.2,2-0.1L147.4,37z"/>
	<path d="M160,53.4c-0.4-0.5-1.2-1.4-1.8-2.1s-1.5-1.6-1.9-2.1l0.3-0.3c0.6,0.5,1,0.7,2.6-0.7l4.3-3.8c1.7-1.5,1.9-2.7,0.8-3.9   c-0.6-0.7-1.5-1-2.5-1.1l-5.8,5.1c-1.6,1.4-1.5,1.8-1.1,2.5l-0.3,0.3c-0.4-0.5-1.2-1.4-1.8-2.1s-1.5-1.6-1.9-2.1l0.3-0.3   c0.6,0.5,1,0.7,2.6-0.7l4.8-4.2c1.2-1.1,1.6-1.5,1.3-2.2l0.3-0.3c1,1.1,2.2,2,3.4,2.6l-1.1,1c1.9,0.3,3,1.1,3.8,2   c1.2,1.4,2.4,3.5-0.5,6l-4.3,3.8c-1.6,1.4-1.5,1.8-1.1,2.5L160,53.4z"/>
	<path d="M163.4,59.3c-1.8-2.9-1.3-7.1,2-9.1c3.5-2.1,7.3-0.5,9.1,2.4s1.3,7.1-2.2,9.1C169.1,63.8,165.2,62.2,163.4,59.3z    M170.5,58.6c3.3-2,4.7-3.5,3.5-5.6c-1.3-2.1-3.3-1.6-6.6,0.4c-3.1,1.9-4.6,3.4-3.3,5.5C165.3,61,167.4,60.5,170.5,58.6z"/>
	<path d="M170.4,75.3l6.5-5.3l-8.3,0.1l-0.2-0.7l8.1-6.6c1.8-1.5,2.2-1.8,2.2-2.7l0.4-0.1c0.1,0.4,0.4,1.1,0.7,2   c0.3,1,1.1,3,1.2,3.3l-0.4,0.1c-0.4-0.5-0.8-0.6-1.3-0.4c-0.5,0.2-1,0.6-1.7,1.1l-3.8,3l8.7-0.2l0.2,0.6l-6.8,5.4l4.7-0.1   c0.8,0,1.6-0.1,2-0.3c0.6-0.2,0.9-0.6,0.8-1.2l0.4-0.1c0.1,0.4,0.3,0.9,0.7,2c0.3,0.8,0.5,1.4,0.6,1.7l-0.4,0.1   c-0.3-0.5-1.2-1.1-5-1.1l-8.9,0.1L170.4,75.3z"/>
	<path d="M182.2,88c-0.1-0.6,0.4-1.3,1.1-1.3c0.7-0.1,1.4,0.4,1.4,1c0.1,0.7-0.4,1.4-1.1,1.5C182.9,89.2,182.3,88.8,182.2,88z"/>
	<path d="M188,110c3.4-0.5,4.8-1.8,5-4.1c0.1-1.8-0.9-3.1-2.7-3.3c-4.9-0.4-4.4,8.3-10.7,7.8c-3.3-0.3-6-2.4-5.7-6.7   c0.1-1.8,0.7-2.7,0.8-3.9c0-0.4,0-0.7,0-1.1c0.5,0.1,0.9,0.1,1.3,0.2c0.9,0.1,2.1,0.1,2.6,0.1c0.6,0.1,1.4,0.1,1.9,0.4l0,0.4   c-2.7,0.1-5.5,1-5.7,4c-0.2,2.2,1.2,3.5,3.1,3.7c4.9,0.4,4.8-8.2,10.8-7.7c3.1,0.2,5.4,2.8,5.1,6.2c-0.1,1.7-0.6,2.2-0.7,3.2   c0,0.5,0,1.2,0.2,1.7c-0.8-0.1-1.9-0.2-2.9-0.3c-0.4,0-1.3-0.1-2.5-0.2L188,110z"/>
	<path d="M174,118.8c-1.5-0.8-2.1-2-1.8-3.5c0.5-2.2,1.9-3.4,4.4-2.9l7.2,1.6l0.3-1.3l0.4,0.1c0.8,2.5,2.6,4.2,4.7,5.2l-0.3,0.6   c-0.8-0.3-2.5-0.7-4-1.1l-0.2,0.8c-0.2,0.9-0.4,1.7,0.1,2.4l-0.4,0.2c-0.5-0.5-0.9-1-1.8-1.6l0.5-2.1l-6.7-1.4   c-2-0.4-2.8-0.1-3.1,1c-0.2,0.8,0.3,1.3,0.9,1.8L174,118.8z"/>
	<path d="M168.8,130c-0.5-0.7-0.9-1.7-0.5-2.8c0.3-0.8,0.9-1.4,1.9-1.4c-0.4-1.4-0.4-2.6,0-3.9c0.7-1.9,2.3-3.3,4.2-2.6   c2.1,0.8,2.5,3.3,1.6,5.7c-0.3,0.8-0.8,1.7-1.3,2.2l3,1.1c2.4,0.9,3.2,0.4,3.6-0.6c0.5-1.3-0.4-2.1-2.6-2.9l1.1-3   c2.9,1.5,2.9,4.2,2.1,6.3c-1,2.8-3,4.2-6,3.1l-5-1.8c-1.2-0.4-1.5-0.3-1.6,0.1c-0.1,0.2-0.1,0.3,0,0.5L168.8,130z M174.1,126.9   c0.4-0.4,0.8-1,1-1.6c0.4-1.2,0.1-2.1-1.4-2.7c-1.6-0.6-2.5,0-2.8,1c-0.2,0.6-0.2,1.4,0.1,2.1c0.2,0,0.4,0.1,0.6,0.2L174.1,126.9z"/>
	<path d="M164.8,134.8c0.3-0.5,0.9-1.6,1.4-2.4s1-2,1.3-2.5l0.4,0.2c-0.2,0.8-0.3,1.1,1.6,2.2l5.6,3.1c1.4,0.8,1.9,1,2.5,0.4   l0.4,0.2c-0.7,1.3-1.2,2.8-1.2,4l-1.9-1c0.6,2.1,0.8,3.1,0.3,4.1c-0.6,1.1-1.9,1.7-4.4,0.4l1.5-2.8c1,0.6,1.6,0.3,1.9-0.3   c0.3-0.5,0.3-1,0-1.8l-6.1-3.3c-1.9-1-2.2-0.8-2.7-0.2L164.8,134.8z"/>
	<path d="M159.7,146.8c-1-1.3-1.1-2.7-0.3-3.9c1.3-1.8,3.1-2.4,5.2-0.9l6,4.3l0.8-1.1l0.3,0.2c-0.2,2.6,0.8,4.9,2.2,6.7l-0.5,0.5   c-0.6-0.6-2-1.7-3.3-2.6l-0.5,0.7c-0.5,0.8-1,1.4-0.8,2.2l-0.4,0c-0.2-0.6-0.5-1.3-1-2.2l1.2-1.7l-5.5-4c-1.6-1.2-2.5-1.3-3.2-0.3   c-0.5,0.7-0.2,1.3,0.1,2L159.7,146.8z"/>
	<path d="M143.4,159.5c0.5-0.4,1.4-1.2,2.1-1.8s1.6-1.5,2.1-1.9l0.3,0.3c-0.5,0.7-0.7,1,0.7,2.6l3.8,4.3c1.5,1.7,2.7,1.9,3.9,0.8   c0.7-0.6,1-1.5,1.1-2.5l-5.1-5.8c-1.4-1.6-1.8-1.5-2.5-1.1l-0.3-0.3c0.5-0.4,1.4-1.2,2.1-1.8s1.6-1.5,2.1-1.9l0.3,0.3   c-0.5,0.7-0.7,1,0.7,2.6l4.2,4.8c1.1,1.2,1.5,1.6,2.2,1.3l0.3,0.3c-1.1,1-2,2.2-2.6,3.4l-1-1.1c-0.3,1.9-1.1,3-2,3.8   c-1.4,1.2-3.5,2.4-6-0.5l-3.8-4.3c-1.4-1.6-1.8-1.5-2.5-1.1L143.4,159.5z"/>
	<path d="M137.4,163c2.9-1.8,7.1-1.3,9.1,2c2.1,3.5,0.5,7.3-2.4,9.1s-7.1,1.3-9.2-2.2C133,168.6,134.5,164.7,137.4,163z M138.1,170   c2,3.3,3.5,4.7,5.6,3.4c2.1-1.3,1.6-3.3-0.4-6.6c-1.9-3.1-3.4-4.6-5.5-3.3S136.2,166.9,138.1,170z"/>
	<path d="M121.5,169.9l5.3,6.5l-0.1-8.3l0.7-0.2l6.6,8.1c1.5,1.8,1.8,2.2,2.7,2.1l0.1,0.4c-0.4,0.1-1.1,0.4-2,0.7   c-1,0.3-3,1.1-3.3,1.2l-0.1-0.4c0.5-0.4,0.6-0.8,0.4-1.3c-0.2-0.5-0.6-1-1.1-1.7l-3-3.8l0.2,8.7l-0.6,0.2l-5.4-6.8l0.1,4.7   c0,0.8,0.1,1.6,0.3,2c0.2,0.6,0.6,0.9,1.2,0.8l0.1,0.4c-0.4,0.1-0.9,0.3-2,0.7c-0.8,0.3-1.3,0.5-1.7,0.6l-0.1-0.4   c0.5-0.3,1.1-1.2,1.1-5l-0.1-8.9L121.5,169.9z"/>
	<path d="M108.8,181.8c0.6-0.1,1.3,0.4,1.3,1c0.1,0.7-0.4,1.4-1,1.4c-0.7,0.1-1.4-0.4-1.5-1.1C107.5,182.5,108,181.9,108.8,181.8z"/>
</g>
</svg>