<svg id="Layer_2" data-name="Layer 2" xmlns="http://www.w3.org/2000/svg" viewBox="0 0 122.88 109.57" fill="#000">
<title>weight-loss-new</title>
<path d="M8.29,109.57c-4.37-32.33,2.43-48.73,8.37-63.08,2.12-5.12,5.87-14.62,7.19-24.31C25,14.11,24.14,5.91,23.68,0h3.1c.48,6.36,1.22,15,0,23.39-1.37,9.7-5.15,19.08-7.3,24.29l-.69,1.66c30.77,9.46,59.43,8.92,86.32-.06l-.57-1.4c-2.08-5.06-7.53-14.07-8.9-23.5-1.26-8.7.78-17.76,1.55-24.38h3.11c-.75,6.31-2.84,15.15-1.62,23.69,1.32,9.24,6.71,18.12,8.72,23,5.93,14.42,12.7,30.86,8.38,62.86h-3.13c3.48-25.45-.18-40.85-4.77-53.26C92.14,62.91,79.61,73,68.22,85.62a1.43,1.43,0,0,1,0,.65,119.14,119.14,0,0,0-2.07,16.8c-.13,2.11-.22,4.28-.28,6.49h-3.1c.06-2.28.15-4.51.29-6.68A135.51,135.51,0,0,1,64.5,89.34H58.87a119.57,119.57,0,0,1,1.61,13.43c.15,2.2.26,4.47.33,6.79h-3.1c-.07-2.24-.17-4.45-.32-6.59A104.25,104.25,0,0,0,55.06,86.3a.59.59,0,0,1,0-.13c-11.37-13.32-23.93-23-39.14-29.39C11.41,69,8,84.35,11.41,109.57Z" transform="translate(-0.01 0)"/>
<path d="M62.05,43.71c1.09,0,2,.66,2,1.47s-.88,1.47-2,1.47-2-.66-2-1.47a1.79,1.79,0,0,1,2-1.47Z" transform="translate(-0.01 0)"/>
<path d="M15.61,22.1,9.78,27.76A1.24,1.24,0,0,1,8.05,26l3.71-3.6H1.25a1.24,1.24,0,0,1,0-2.48H11.76l-3.71-3.6a1.24,1.24,0,1,1,1.73-1.77l5.83,5.67a1.25,1.25,0,0,1,.45.95,1.22,1.22,0,0,1-.45.94Z" transform="translate(-0.01 0)"/>
<path d="M107.28,20.19l5.83-5.66a1.24,1.24,0,0,1,1.73,1.77l-3.71,3.6h10.51a1.24,1.24,0,0,1,0,2.48H111.13l3.71,3.6a1.24,1.24,0,0,1-1.73,1.77l-5.83-5.67a1.25,1.25,0,0,1-.45-.95,1.22,1.22,0,0,1,.45-.94Z" transform="translate(-0.01 0)"/>
</svg>